<?xml version="1.0" encoding="utf-8"?>
<!-- Generator: Adobe Illustrator 29.8.1, SVG Export Plug-In . SVG Version: 9.03 Build 0)  -->
<svg version="1.0" id="Ebene_1" xmlns="http://www.w3.org/2000/svg" xmlns:xlink="http://www.w3.org/1999/xlink" x="0px" y="0px"
	 viewBox="0 0 1500 500" style="enable-background:new 0 0 1500 500;" xml:space="preserve">
<style type="text/css">
	.st0{fill:#39D130;}
</style>
<g id="Negativ">
	<g>
		<g>
			<g>
				<rect x="511.4" y="106.6" class="st0" width="64.7" height="200.8"/>
				<path class="st0" d="M543.3,2.5c-21.3,0-36.8,15.1-36.8,35.8c0,20.5,15.5,35.3,36.8,35.3c21.5,0,37.8-15.2,37.8-35.3
					C581,17.9,564.8,2.5,543.3,2.5z"/>
			</g>
			<g>
				<path class="st0" d="M733.2,101.2c-29.3,0-45.7,8.4-62.5,32.2l-1,1.3h-1.6h-2.4l-0.9-2.3l-7.8-25.9h-43.4v200.8h64.7V191.7
					c1.1-20.2,16.2-34.3,36.7-34.3c21.6,0,36.7,15.1,36.7,36.7v113.2h64.7V188.8C816.3,134.7,784.5,101.2,733.2,101.2z"/>
			</g>
			<g>
				<path class="st0" d="M1280.5,133.2l-0.9,1.5h-1.8h-0.3h-2.4l-0.7-2.3l-7.9-25.9h-42.8v200.8h64.7v-97
					c0-30.9,17.9-50.1,46.6-50.1h7.7v-53.8h-7.7C1308.6,106.6,1291.8,114.8,1280.5,133.2z"/>
			</g>
			<path class="st0" d="M1492.4,298.2l-14-44.4c-3.6,1.9-9.4,4.2-16.4,4.2c-13.9,0-21.9-7.8-21.9-21.4v-78.4V155h3.2h43.2v-48.4
				h-43.2h-3.2v-3.2v-60h-64.7V240c0,33,11.6,72.3,66.9,72.3C1459.1,312.4,1478.5,306.9,1492.4,298.2z"/>
			<path class="st0" d="M933.3,309.9l16.3-51.6c-21.5-6.3-34.7-25.6-34.7-51.3c0-32,20.3-53.5,50.5-53.5c5.3,0,10.9,0.6,16.6,1.8
				l15.1-48c-11.8-3.8-24.7-5.7-38.2-5.7c-64.4,0-109.3,43.3-109.3,105.4C849.7,259.7,882.4,299.8,933.3,309.9z"/>
			<path class="st0" d="M1187.6,218.1c0.1-4.1,0.4-11.5,0.4-16.6c0-61.6-36.6-99.9-95.5-99.9c-21.1,0-40.1,5.7-55.9,15.7
				l-40.3,127.8c14.2,42.2,52.7,68.7,104.6,68.7c34.2,0,56.9-10.6,68.4-17.8l-14.4-45.5c-7.4,4.6-25.3,14-49.1,14
				c-32,0-49.4-14-53.5-42.7l-0.5-3.6h3.7C1055.5,218.1,1187.6,218.1,1187.6,218.1z M1053.3,182.2c4.5-22.6,18.1-35.6,37.2-35.6
				c20.9,0,34.6,13.8,35.7,36.1l0.2,3.3h-3.3h-66.6h-3.9L1053.3,182.2z"/>
		</g>
		<g id="Welt_6_">
			<path class="st0" d="M341.2,142.9c0-0.2-0.1-0.4-0.1-0.5c-1.1-5.2-2.4-10.3-3.9-15.3c-0.1-0.3-0.2-0.6-0.3-0.9
				c-1.6-5.1-3.4-10.1-5.5-15c0-0.1-0.1-0.2-0.1-0.3c-0.4-0.9-0.9-1.7-1.3-2.6c-5.3-4.6-13.4-8.9-20.6-11.7
				c-26.7-10.2-51.6-8.7-78.7-0.5c-34.3,10.3-60.7,32.2-85.2,56.9c-22.6,22.8-41.6,48.9-66.9,69.1c-17.4,13.9-35.1,23.7-57.2,16.2
				c-1.6-0.5-2.5,0.6-2.1,1.4c1.1,2.7,2.3,5.3,3.5,7.9c0.9,1.9,1.8,3.8,2.7,5.7c1.1,2.2,2.2,4.3,3.4,6.4c1.7,3,3.4,5.9,5.2,8.7
				c0.7,1,1.4,2.1,2,3.1c2.7,4,5.6,7.8,8.6,11.5c0.7,0.9,1.5,1.8,2.3,2.7c2.7,3.2,5.5,6.3,8.5,9.3c0.5,0.5,1,1.1,1.5,1.6
				c5.9,5.9,12.3,11.2,19,16.1c10.5,0.1,32.1-5.4,50.6-23.7c18.6-18.5,36.2-38.2,54.2-57.5c22.1-23.7,46.2-45,76.4-57.4
				c12.4-5.1,25.7-9.1,39.1-10c17.1-1.2,33.2,4.6,46.3,16c0.6,0.5,1.5,0,1.9-0.7c0-0.8,0.1-1.6,0.1-2.5
				C344.6,165.1,343.4,153.8,341.2,142.9z"/>
			<path class="st0" d="M307.3,230c-22.1,0-40.3,10.8-56.4,24.2c-20.1,16.7-37.1,36.5-56.4,54.1c-14.4,13.1-30.2,25.2-48.1,33.7
				c-0.3,0.2-0.4,0.4-0.4,0.7c9.7,1.7,19.6,2.8,29.7,2.8c63.9,0,119.6-35.6,148.2-88c0.1-0.2,0.2-0.4,0.3-0.6
				c2.6-4.7,4.9-9.6,7-14.5C328.4,234.7,320.1,230,307.3,230z"/>
			<path class="st0" d="M56.6,57.1c-0.2,0.2-0.3,0.4-0.5,0.5c-3.5,3.6-6.9,7.3-10.1,11.1c-0.3,0.4-0.7,0.8-1,1.2
				c-3,3.7-5.8,7.4-8.5,11.3c-0.5,0.7-0.9,1.3-1.3,2c-2.5,3.7-4.8,7.5-6.9,11.4c-0.5,0.9-1,1.8-1.5,2.8c-2,3.7-3.8,7.5-5.5,11.4
				c-0.5,1.2-1,2.4-1.5,3.6c-1.5,3.7-2.9,7.5-4.1,11.3c-0.5,1.4-1,2.9-1.4,4.4c-1.1,3.6-2,7.4-2.9,11.1c-0.4,1.7-0.8,3.4-1.1,5.1
				c-0.7,3.6-1.2,7.2-1.7,10.8c-0.2,2-0.5,3.9-0.7,5.9c-0.1,0.9-0.1,1.9-0.1,2.9c4,4.5,11.6,6.2,20.3,2.9
				c11.4-4.4,21.4-11.7,30.4-19.9c18-16.4,33.8-35.2,51.5-52c22.2-21,47-38.5,76.5-48.2c31.4-10.4,62.7-13,93.8-1.9
				c0.6,0.2,0.8,0,0.6-0.4C251.8,21.6,215.4,7.8,175.8,7.8C129.2,7.8,87.1,26.6,56.6,57.1z"/>
		</g>
		<g>
			<path class="st0" d="M513.1,397c4.7,8,13.8,11,22,11c9.3,0,16.1-3.4,16.1-8.7c0-5.7-4.6-6.6-18.8-8.1
				c-12.3-1.2-20.8-3.1-20.8-12.2c0-8.2,8.4-14.2,20.9-14.2c11,0,19.9,4.3,23.6,10.5l-4.6,3.7c-3.3-5.3-10.1-8.7-19.3-8.7
				c-9.6,0-14.7,3.7-14.7,8.1c0,5,4.6,6,16.8,7.2c14.8,1.6,23,3.4,23,13c0,9.3-9.7,14.9-22.4,14.9c-11.6,0-22.2-4.8-26.4-12.4
				L513.1,397z"/>
			<path class="st0" d="M570.5,424.6h-5.9v-46.3h5.9v6c2.6-3.7,7.6-6.7,14.5-6.7c11.6,0,18.8,7.9,18.8,17.9
				c0,9.9-7.2,17.9-18.8,17.9c-6.8,0-11.9-3-14.5-6.8V424.6z M570.2,395.8c0,7.8,6.8,12.6,14,12.6c7.7,0,13.9-4.9,13.9-12.8
				c0-8-6.2-12.9-13.9-12.9c-7.2,0-14,4.9-14,12.6V395.8z"/>
			<path class="st0" d="M641.8,400.1l4.8,2.5c-2,5.8-8.5,10.8-17.8,10.8c-11.4,0-19.5-7.4-19.5-17.9c0-10.2,8-17.9,19.5-17.9
				c11.2,0,18.3,7.5,18.3,17.1v2.3h-32.3c0.7,6.8,6.4,11.3,14,11.3C635.5,408.3,640.3,404.9,641.8,400.1z M615.2,392.6h26.2
				c-0.4-4.7-5.1-9.9-12.8-9.9C622,382.7,616.5,386.4,615.2,392.6z"/>
			<path class="st0" d="M686.3,412.8h-34.8v-4.5l26.6-24.9h-26.3v-5.1h34.4v4.5l-26.7,24.8h26.8
				C686.3,407.7,686.3,412.8,686.3,412.8z"/>
			<path class="st0" d="M693.7,365.5h6.4v6.8h-6.4V365.5z M699.8,412.8h-5.9v-34.4h5.9V412.8z"/>
			<path class="st0" d="M707.2,403.2c0-6.4,5.5-9.7,13.6-10.6l15.2-1.7V390c0-4.3-3.6-7.2-10.3-7.2c-5.9,0-10.9,2.8-12.3,6.7
				l-4.9-2.2c2.2-5.8,9.3-9.5,17.4-9.5c9.9,0,15.9,4.4,15.9,12.4v15.5c0,2.6,1.7,3.3,5.5,2.4v4.7c-6.6,1.2-10.1-1.2-10.7-5.2
				l-0.1-0.3c-3.1,4-8.9,6.3-15.5,6.3C713.3,413.5,707.2,409.9,707.2,403.2z M736,395.6l-14.3,1.7c-5.1,0.6-8.7,1.9-8.7,5.9
				c0,3.5,3.4,5.5,8.5,5.5c6.8,0,14.5-3.2,14.5-9.6C736,399,736,395.6,736,395.6z"/>
			<path class="st0" d="M758.9,412.8H753v-47.2h5.9V412.8z"/>
			<path class="st0" d="M768.5,365.5h6.4v6.8h-6.4V365.5z M774.7,412.8h-5.9v-34.4h5.9V412.8z"/>
			<path class="st0" d="M784.7,401c3.1,5.1,8.4,7.4,15,7.4c6,0,10.6-1.7,10.6-5.6c0-4.1-4.1-4.2-12.5-5.1c-8.6-1-15.3-2.4-15.3-9.4
				c0-6.3,6.4-10.7,15.6-10.7c8.3,0,14.5,3.3,17.2,7.7l-4,3.5c-2.6-4.1-7.4-6.3-13.4-6.3c-6.1,0-9.7,2-9.7,5.2
				c0,3.4,3.5,3.8,10.9,4.7c9.2,1.1,17.1,1.8,17.1,9.9c0,7.2-7.8,11.1-16.4,11.1c-8.7,0-16-3-19.4-8.8L784.7,401z"/>
			<path class="st0" d="M827.2,383.4h-8.4v-5.1h8.4v-10.1h5.9v10.1H849v5.1h-16v18c0,4.9,2.9,6.4,8.1,6.4c2.9,0,5.5-0.7,8-1.6
				l1.1,5.1c-2.6,1.1-6.5,1.8-10,1.8c-7.2,0-13-2.9-13-11.2L827.2,383.4L827.2,383.4z"/>
			<path class="st0" d="M892.6,364.8c2.4,0,5.5,0.4,7.4,1.2l-1,5.2c-2.2-0.7-3.9-0.9-6.4-0.9c-5.8,0-8.7,2.3-8.7,7.6v0.5h14.3v5.1
				h-14.3v29.3h-5.8v-29.3h-8.4v-5.1h8.4v-0.7C878.1,369,883.8,364.8,892.6,364.8z"/>
			<path class="st0" d="M937.9,412.8H932v-5.9c-2.4,3.5-6.7,6.6-13.2,6.6c-9.5,0-14.8-6.4-14.8-15.7v-19.4h5.9v18.7
				c0,6.6,3.3,10.9,10.4,10.9c6.8,0,11.7-4.6,11.7-11.9v-17.8h5.9C937.9,378.3,937.9,412.8,937.9,412.8z M910.2,365.8h6.6v6.8h-6.6
				V365.8z M925.1,365.8h6.6v6.8h-6.6V365.8z"/>
			<path class="st0" d="M970.9,384.5c-1.5-0.3-2.4-0.5-4-0.5c-7.9,0-13.2,4.6-13.2,12.6v16.2h-5.9v-34.4h5.9v7.2
				c2.6-4.5,6.9-7.5,13.3-7.5c1.6,0,3,0.2,3.9,0.5C970.9,378.5,970.9,384.5,970.9,384.5z"/>
			<path class="st0" d="M1044.6,380.1l-5.3,2.8c-2.8-7.7-9.6-12.4-19.3-12.4c-12.4,0-21.2,7.5-21.2,18.6c0,11.2,8.7,18.8,21,18.8
				c10.6,0,19.5-5.7,19.7-14.1h-23.2v-5.5h28.8v24.5h-5.9v-8.2c-2.9,5-10.1,8.9-19.4,8.9c-15.9,0-27.4-10.2-27.4-24.4
				c0-14.2,11.8-24.3,27.7-24.3C1032.2,364.8,1041.2,370.8,1044.6,380.1z"/>
			<path class="st0" d="M1087.9,412.8h-5.9v-5.9c-2.4,3.5-6.7,6.6-13.2,6.6c-9.5,0-14.8-6.4-14.8-15.7v-19.4h5.9v18.7
				c0,6.6,3.3,10.9,10.4,10.9c6.8,0,11.7-4.6,11.7-11.9v-17.8h5.9C1087.9,378.3,1087.9,412.8,1087.9,412.8z"/>
			<path class="st0" d="M1101.7,383.4h-8.4v-5.1h8.4v-10.1h5.9v10.1h15.9v5.1h-15.9v18c0,4.9,2.9,6.4,8.1,6.4c2.9,0,5.5-0.7,8-1.6
				l1.1,5.1c-2.6,1.1-6.5,1.8-10,1.8c-7.2,0-13-2.9-13-11.2L1101.7,383.4L1101.7,383.4z"/>
			<path class="st0" d="M1131.5,401c3.1,5.1,8.4,7.4,15,7.4c6,0,10.6-1.7,10.6-5.6c0-4.1-4.1-4.2-12.5-5.1c-8.6-1-15.3-2.4-15.3-9.4
				c0-6.3,6.4-10.7,15.6-10.7c8.3,0,14.5,3.3,17.2,7.7l-4,3.5c-2.6-4.1-7.4-6.3-13.4-6.3c-6.1,0-9.7,2-9.7,5.2
				c0,3.4,3.5,3.8,10.9,4.7c9.2,1.1,17.1,1.8,17.1,9.9c0,7.2-7.8,11.1-16.4,11.1c-8.7,0-16-3-19.4-8.8L1131.5,401z"/>
			<path class="st0" d="M1187.4,377.7c9.3,0,15.6,5.3,17.6,11.5l-4.9,2.6c-1.4-5-6.1-9-12.8-9c-7.8,0-13.8,5-13.8,12.8
				s6,12.8,13.8,12.8c6.7,0,11.5-4,12.8-9l4.8,2.7c-2,6.2-8.3,11.4-17.6,11.4c-11.2,0-19.5-7.4-19.5-17.9
				C1167.9,385,1176.3,377.7,1187.4,377.7z"/>
			<path class="st0" d="M1211.6,365.5h5.9v18.9c2.4-3.6,7.1-6.7,13.6-6.7c9.6,0,14.9,6.6,14.9,15.9v19.1h-6v-18.2
				c0-6.5-3.4-11.4-10.5-11.4c-6.9,0-11.9,4.7-11.9,12v17.6h-5.9L1211.6,365.5L1211.6,365.5z"/>
			<path class="st0" d="M1285.6,400.1l4.8,2.5c-2,5.8-8.5,10.8-17.8,10.8c-11.4,0-19.5-7.4-19.5-17.9c0-10.2,8-17.9,19.5-17.9
				c11.2,0,18.3,7.5,18.3,17.1v2.3h-32.3c0.7,6.8,6.4,11.3,14,11.3C1279.3,408.3,1284.1,404.9,1285.6,400.1z M1259,392.6h26.2
				c-0.4-4.7-5.1-9.9-12.8-9.9C1265.8,382.7,1260.3,386.4,1259,392.6z"/>
			<path class="st0" d="M1298.1,365.5h6.4v6.8h-6.4V365.5z M1304.3,412.8h-5.9v-34.4h5.9V412.8z"/>
			<path class="st0" d="M1314.1,378.3h5.9v6c2.4-3.6,7.1-6.7,13.6-6.7c9.6,0,14.9,6.6,14.9,15.9v19.1h-6v-18.2
				c0-6.5-3.4-11.4-10.5-11.4c-6.9,0-11.9,4.7-11.9,12v17.6h-5.9L1314.1,378.3L1314.1,378.3z"/>
			<path class="st0" d="M1356.8,391.1h18v5.3h-18V391.1z"/>
			<path class="st0" d="M1382.3,405h7.5v8.2c0,5.1-3.3,8.2-8.6,8.4v-3.4c2.9-0.1,4.5-1.6,4.5-4.8v-0.5h-3.4
				C1382.3,412.8,1382.3,405,1382.3,405z"/>
			<path class="st0" d="M538.7,443.3V485h-6.3v-41.7h-22.3v-5.5H561v5.5H538.7z"/>
			<path class="st0" d="M566.3,437.8h6.4v6.8h-6.4V437.8z M572.5,485.1h-5.9v-34.4h5.9V485.1z"/>
			<path class="st0" d="M599.6,450c9.3,0,15.6,5.3,17.6,11.5l-4.9,2.6c-1.4-5-6.1-9-12.8-9c-7.8,0-13.8,5-13.8,12.8
				s6,12.8,13.8,12.8c6.7,0,11.5-4,12.8-9l4.8,2.7c-2,6.2-8.3,11.4-17.6,11.4c-11.2,0-19.5-7.4-19.5-17.9
				C580.1,457.4,588.4,450,599.6,450z"/>
			<path class="st0" d="M629.7,469.1l22.4-18.4h8.4l-18.2,14.7l19.2,19.7h-7.6L638,468.8l-8.4,6.8v9.5h-5.9v-47.2h5.9
				C629.7,437.8,629.7,469.1,629.7,469.1z"/>
			<path class="st0" d="M694.6,472.4l4.8,2.5c-2,5.8-8.5,10.8-17.8,10.8c-11.4,0-19.5-7.4-19.5-17.9c0-10.2,8-17.9,19.5-17.9
				c11.2,0,18.3,7.5,18.3,17.1v2.3h-32.3c0.7,6.8,6.4,11.3,14,11.3C688.3,480.7,693,477.2,694.6,472.4z M667.9,464.9h26.2
				c-0.4-4.7-5.1-9.9-12.8-9.9C674.7,455,669.3,458.7,667.9,464.9z"/>
			<path class="st0" d="M710.9,455.7h-8.4v-5.1h8.4v-10.1h5.9v10.1h15.9v5.1h-15.9v18c0,4.9,2.9,6.4,8.1,6.4c2.9,0,5.5-0.7,8-1.6
				l1.1,5.1c-2.6,1.1-6.5,1.8-10,1.8c-7.2,0-13-2.9-13-11.2L710.9,455.7L710.9,455.7z"/>
			<path class="st0" d="M737.3,463.4h18v5.3h-18V463.4z"/>
			<path class="st0" d="M831.5,460.4c-1.5,6.1-4.6,11.5-9.1,15.9c4.3,2.8,7.4,3.6,11.4,3.5v5.3c-6.4,0.4-11.3-2-15.9-5.3
				c-5.6,3.7-12.4,5.9-19.9,5.9c-12,0-19.8-5.5-19.8-13.9c0-6.7,5.2-11.5,13.1-13.3c-2.6-2.8-3.9-5.7-3.9-9.2
				c0-6.7,5.4-12.2,14.8-12.2c9.8,0,14.5,5.5,14.5,11.6c0,6.4-5.8,11-13.6,12.6l14.5,11.5l0.1,0.1c3.7-3.6,6.6-8.2,7.8-13.5
				L831.5,460.4z M798.6,480.4c5.4,0,10.4-1.5,14.7-4c-0.1-0.1-0.2-0.2-0.3-0.3l-17.2-13.8c-7.3,0.9-11.2,4.1-11.2,9
				C784.6,476.9,790.4,480.4,798.6,480.4z M798.4,457.4c7.2-0.7,12.6-3.3,12.6-8.6c0-3.5-2.6-7-8.8-7c-5.8,0-8.9,3.2-8.9,7.1
				C793.3,451.8,794.4,454.1,798.4,457.4z"/>
			<path class="st0" d="M857.9,437.8h6.3v41.7h35.9v5.5h-42.2V437.8z"/>
			<path class="st0" d="M941.4,467.9c0,10.5-8.4,17.9-19.3,17.9c-11,0-19.3-7.4-19.3-17.9c0-10.6,8.3-17.9,19.3-17.9
				C933.1,450,941.4,457.3,941.4,467.9z M935.7,467.9c0-7.8-5.9-12.8-13.6-12.8c-7.8,0-13.7,4.9-13.7,12.8c0,7.8,5.9,12.8,13.7,12.8
				C929.8,480.7,935.7,475.6,935.7,467.9z"/>
			<path class="st0" d="M951.5,497.5c-2.2,0-4.9-0.5-6.3-1.2l1.2-5.1c1.6,0.7,3,1.1,4.8,1.1c3.3,0,6.2-1.2,8-5.5l1.1-2.3l-17.7-33.9
				h6.6l14.2,28l14-28h6.4l-19.4,38.2C961.1,495.3,957.3,497.5,951.5,497.5z"/>
			<path class="st0" d="M984.6,475.5c0-6.4,5.5-9.7,13.6-10.6l15.2-1.7v-0.8c0-4.3-3.6-7.2-10.3-7.2c-5.9,0-10.9,2.8-12.3,6.7
				l-4.9-2.2c2.2-5.8,9.3-9.5,17.4-9.5c9.9,0,15.9,4.4,15.9,12.4v15.5c0,2.6,1.7,3.3,5.5,2.4v4.7c-6.6,1.2-10.1-1.2-10.7-5.2
				l-0.1-0.3c-3.1,4-8.9,6.3-15.5,6.3C990.7,485.8,984.6,482.2,984.6,475.5z M1013.4,467.9l-14.3,1.7c-5.1,0.6-8.7,1.9-8.7,5.9
				c0,3.5,3.4,5.5,8.5,5.5c6.8,0,14.5-3.2,14.5-9.6C1013.4,471.3,1013.4,467.9,1013.4,467.9z"/>
			<path class="st0" d="M1036.3,485.1h-5.9v-47.2h5.9V485.1z"/>
			<path class="st0" d="M1050.2,455.7h-8.4v-5.1h8.4v-10.1h5.9v10.1h15.9v5.1h-16v18c0,4.9,2.9,6.4,8.1,6.4c2.9,0,5.5-0.7,8-1.6
				l1.1,5.1c-2.6,1.1-6.5,1.8-10,1.8c-7.2,0-13-2.9-13-11.2V455.7L1050.2,455.7z"/>
			<path class="st0" d="M1084.1,497.5c-2.2,0-4.9-0.5-6.3-1.2l1.2-5.1c1.6,0.7,3,1.1,4.8,1.1c3.3,0,6.2-1.2,8-5.5l1.1-2.3
				l-17.7-33.9h6.6l14.2,28l14-28h6.4l-19.4,38.2C1093.7,495.3,1089.8,497.5,1084.1,497.5z"/>
			<path class="st0" d="M1139.3,469.3c4.7,8,13.8,11,22,11c9.3,0,16.1-3.4,16.1-8.7c0-5.7-4.6-6.6-18.8-8.1
				c-12.3-1.2-20.8-3.1-20.8-12.2c0-8.2,8.4-14.2,20.9-14.2c11,0,19.9,4.3,23.6,10.5l-4.6,3.7c-3.3-5.3-10.1-8.7-19.3-8.7
				c-9.6,0-14.7,3.7-14.7,8.1c0,5,4.6,6,16.8,7.2c14.8,1.6,23,3.4,23,13c0,9.3-9.7,14.9-22.4,14.9c-11.6,0-22.2-4.8-26.4-12.4
				L1139.3,469.3z"/>
			<path class="st0" d="M1194.4,497.5c-2.2,0-4.9-0.5-6.3-1.2l1.2-5.1c1.6,0.7,3,1.1,4.8,1.1c3.3,0,6.2-1.2,8-5.5l1.1-2.3
				l-17.7-33.9h6.6l14.2,28l14-28h6.4l-19.4,38.2C1204,495.3,1200.1,497.5,1194.4,497.5z"/>
			<path class="st0" d="M1231,473.4c3.1,5.1,8.3,7.4,15,7.4c6,0,10.6-1.7,10.6-5.6c0-4.1-4.1-4.2-12.5-5.1c-8.6-1-15.3-2.4-15.3-9.4
				c0-6.3,6.4-10.7,15.6-10.7c8.3,0,14.5,3.3,17.2,7.7l-4,3.5c-2.6-4.1-7.4-6.3-13.4-6.3c-6.1,0-9.7,2-9.7,5.2
				c0,3.4,3.5,3.8,10.9,4.7c9.2,1.1,17.1,1.8,17.1,9.9c0,7.2-7.8,11.1-16.4,11.1c-8.7,0-16-3-19.4-8.8L1231,473.4z"/>
			<path class="st0" d="M1273.4,455.7h-8.4v-5.1h8.4v-10.1h5.9v10.1h15.9v5.1h-15.9v18c0,4.9,2.9,6.4,8.1,6.4c2.9,0,5.5-0.7,8-1.6
				l1.1,5.1c-2.6,1.1-6.5,1.8-10,1.8c-7.2,0-13-2.9-13-11.2L1273.4,455.7L1273.4,455.7z"/>
			<path class="st0" d="M1332.2,472.4l4.8,2.5c-2,5.8-8.5,10.8-17.8,10.8c-11.4,0-19.5-7.4-19.5-17.9c0-10.2,8-17.9,19.5-17.9
				c11.2,0,18.3,7.5,18.3,17.1v2.3h-32.3c0.7,6.8,6.4,11.3,14,11.3C1325.9,480.7,1330.7,477.2,1332.2,472.4z M1305.6,464.9h26.2
				c-0.4-4.7-5.1-9.9-12.8-9.9C1312.4,455,1306.9,458.7,1305.6,464.9z"/>
			<path class="st0" d="M1344.9,450.7h5.9v5.5c2.3-3.4,6.4-6.2,12.4-6.2s10.2,2.9,12.2,7.3c2.8-4.1,7.6-7.3,13.9-7.3
				c9.9,0,14.9,6.3,14.9,15.6v19.5h-5.9v-18.8c0-6.3-3.1-10.8-9.9-10.8c-6.5,0-10.9,4.5-10.9,11.3v18.3h-5.9v-18.8
				c0-6.3-3.1-10.8-9.9-10.8c-6.6,0-10.9,4.5-10.9,11.3v18.3h-5.9C1344.9,485.1,1344.9,450.7,1344.9,450.7z"/>
			<path class="st0" d="M1444,472.4l4.8,2.5c-2,5.8-8.5,10.8-17.8,10.8c-11.4,0-19.5-7.4-19.5-17.9c0-10.2,8-17.9,19.5-17.9
				c11.2,0,18.3,7.5,18.3,17.1v2.3H1417c0.7,6.8,6.4,11.3,14,11.3C1437.7,480.7,1442.4,477.2,1444,472.4z M1417.4,464.9h26.2
				c-0.4-4.7-5.1-9.9-12.8-9.9C1424.2,455,1418.7,458.7,1417.4,464.9z"/>
		</g>
	</g>
</g>
</svg>
