<?xml version="1.0" encoding="UTF-8"?>
<svg id="Layer_1" data-name="Layer 1" xmlns="http://www.w3.org/2000/svg" viewBox="0 0 729.69 140.58">
  <defs>
    <style>
      .cls-1 {
        fill: #22282b;
      }

      .cls-1, .cls-2 {
        fill-rule: evenodd;
        stroke-width: 0px;
      }

      .cls-2 {
        fill: #ad1f29;
      }
    </style>
  </defs>
  <g id="A4">
    <path id="Fill-1" class="cls-1" d="M316.01,59.61h-19.22v-27.96h19.22c9.32,0,14.76,6.79,14.76,13.97s-5.44,13.98-14.76,13.98M364.75,45.63c0-22.72-16.5-44.46-47.18-44.46h-54.76v138.25h33.98v-75.28l11.45,23.83,24.47,51.45h39.41l-29.9-57.67c10.88-5.44,22.52-17.28,22.52-36.12"/>
    <path id="Fill-3" class="cls-1" d="M210.72,104.08c-2.52,3.3-7.38,6.21-13.59,6.21s-11.07-2.92-13.59-6.21c-3.11-4.08-5.05-8.54-5.05-33.79s1.94-29.9,5.05-33.98c2.53-3.3,7.38-6.02,13.59-6.02s11.07,2.72,13.59,6.02c3.11,4.08,5.05,8.74,5.05,33.98s-1.94,29.71-5.05,33.79M235.77,15.53c-10.1-10.1-21.75-15.53-38.64-15.53s-28.54,5.44-38.64,15.53c-14.56,14.56-13.98,33.98-13.98,54.76s-.58,40.19,13.98,54.76c10.1,10.1,21.75,15.53,38.64,15.53s28.54-5.44,38.64-15.53c14.56-14.56,13.98-33.98,13.98-54.76s.58-40.19-13.98-54.76"/>
    <polygon id="Fill-5" class="cls-1" points="369.67 31.45 403.65 31.45 403.65 139.41 437.63 139.41 437.63 31.45 471.61 31.45 471.61 1.17 369.67 1.17 369.67 31.45"/>
    <polygon id="Fill-7" class="cls-1" points="573.81 31.45 573.81 1.17 479.83 1.17 479.83 139.41 573.81 139.41 573.81 109.13 513.81 109.13 513.81 84.85 565.07 84.85 565.07 54.57 513.81 54.57 513.81 31.45 573.81 31.45"/>
    <polygon id="Fill-9" class="cls-1" points="144.46 1.17 98.1 1.17 89.4 15.17 111.72 46.68 144.46 1.17"/>
    <polygon id="Fill-11" class="cls-1" points="2.85 1.17 51.21 69.3 0 139.41 46.6 139.41 72.45 98.96 101.13 139.41 147.73 139.41 49.63 1.17 2.85 1.17"/>
    <polygon id="Fill-14" class="cls-2" points="726.43 1.17 680.06 1.17 671.37 15.17 693.69 46.68 726.43 1.17"/>
    <polygon id="Fill-16" class="cls-2" points="631.59 1.17 584.82 1.17 633.18 69.3 581.96 139.41 628.57 139.41 654.41 98.96 683.09 139.41 729.69 139.41 631.59 1.17"/>
  </g>
</svg>